<mxfile host="app.diagrams.net" modified="2024-04-25T19:30:31.966Z" agent="Mozilla/5.0 (Windows NT 10.0; Win64; x64) AppleWebKit/537.36 (KHTML, like Gecko) Chrome/124.0.0.0 Safari/537.36" version="24.3.0" etag="3BMcFFoPaODhC2WT5kYD" type="github">
  <diagram name="PÃ¡gina-1" id="Fm0RppXlrWOxLIQYOHqP">
    <mxGraphModel>
      <root>
        <mxCell id="0" />
        <mxCell id="1" parent="0" />
      </root>
    </mxGraphModel>
  </diagram>
</mxfile>
